<svg width="1200" height="630" viewBox="0 0 1200 630" fill="none" xmlns="http://www.w3.org/2000/svg">
  <!-- Background gradient -->
  <defs>
    <linearGradient id="bgGradient" x1="0%" y1="0%" x2="100%" y2="100%">
      <stop offset="0%" style="stop-color:#0A0F1C"/>
      <stop offset="100%" style="stop-color:#1a1f2e"/>
    </linearGradient>
    <linearGradient id="accentGradient" x1="0%" y1="0%" x2="100%" y2="0%">
      <stop offset="0%" style="stop-color:#0066FF"/>
      <stop offset="100%" style="stop-color:#00D4AA"/>
    </linearGradient>
  </defs>

  <!-- Background -->
  <rect width="1200" height="630" fill="url(#bgGradient)"/>

  <!-- Grid pattern -->
  <g opacity="0.1">
    <line x1="0" y1="0" x2="0" y2="630" stroke="#0066FF" stroke-width="1"/>
    <line x1="100" y1="0" x2="100" y2="630" stroke="#0066FF" stroke-width="1"/>
    <line x1="200" y1="0" x2="200" y2="630" stroke="#0066FF" stroke-width="1"/>
    <line x1="300" y1="0" x2="300" y2="630" stroke="#0066FF" stroke-width="1"/>
    <line x1="400" y1="0" x2="400" y2="630" stroke="#0066FF" stroke-width="1"/>
    <line x1="500" y1="0" x2="500" y2="630" stroke="#0066FF" stroke-width="1"/>
    <line x1="600" y1="0" x2="600" y2="630" stroke="#0066FF" stroke-width="1"/>
    <line x1="700" y1="0" x2="700" y2="630" stroke="#0066FF" stroke-width="1"/>
    <line x1="800" y1="0" x2="800" y2="630" stroke="#0066FF" stroke-width="1"/>
    <line x1="900" y1="0" x2="900" y2="630" stroke="#0066FF" stroke-width="1"/>
    <line x1="1000" y1="0" x2="1000" y2="630" stroke="#0066FF" stroke-width="1"/>
    <line x1="1100" y1="0" x2="1100" y2="630" stroke="#0066FF" stroke-width="1"/>
    <line x1="1200" y1="0" x2="1200" y2="630" stroke="#0066FF" stroke-width="1"/>
  </g>

  <!-- Accent circle -->
  <circle cx="950" cy="315" r="250" fill="#0066FF" opacity="0.1"/>
  <circle cx="950" cy="315" r="180" fill="#00D4AA" opacity="0.08"/>

  <!-- Logo icon -->
  <g transform="translate(80, 80)">
    <rect width="60" height="60" rx="12" fill="url(#accentGradient)"/>
    <path d="M20 35 L30 25 L40 32 L30 42 Z" fill="white"/>
    <circle cx="30" cy="30" r="8" fill="none" stroke="white" stroke-width="2"/>
  </g>

  <!-- Logo text -->
  <text x="160" y="125" font-family="Arial, sans-serif" font-size="32" font-weight="700" fill="white">
    Spend<tspan fill="#00D4AA">Pilot</tspan>
  </text>

  <!-- Main headline -->
  <text x="80" y="280" font-family="Arial, sans-serif" font-size="72" font-weight="800" fill="white">
    Reduisez votre
  </text>
  <text x="80" y="360" font-family="Arial, sans-serif" font-size="72" font-weight="800" fill="white">
    facture Cloud de
  </text>
  <text x="80" y="440" font-family="Arial, sans-serif" font-size="72" font-weight="800" fill="url(#accentGradient)">
    20 a 40%
  </text>

  <!-- Subtitle -->
  <text x="80" y="510" font-family="Arial, sans-serif" font-size="28" fill="#9CA3AF">
    FinOps &amp; GreenOps pour AWS, Azure et GCP
  </text>

  <!-- Stats badges -->
  <g transform="translate(80, 550)">
    <rect width="180" height="50" rx="25" fill="#0066FF" opacity="0.2"/>
    <text x="90" y="32" font-family="Arial, sans-serif" font-size="18" font-weight="600" fill="#0066FF" text-anchor="middle">
      Audit gratuit
    </text>
  </g>

  <g transform="translate(280, 550)">
    <rect width="180" height="50" rx="25" fill="#00D4AA" opacity="0.2"/>
    <text x="90" y="32" font-family="Arial, sans-serif" font-size="18" font-weight="600" fill="#00D4AA" text-anchor="middle">
      48h resultat
    </text>
  </g>

  <!-- Chart illustration -->
  <g transform="translate(800, 200)">
    <rect width="320" height="200" rx="16" fill="#1E293B" opacity="0.8"/>
    <text x="20" y="35" font-family="Arial, sans-serif" font-size="14" fill="#9CA3AF">Economies identifiees</text>
    <text x="20" y="65" font-family="Arial, sans-serif" font-size="28" font-weight="700" fill="#00D4AA">47 280 EUR/an</text>

    <!-- Bar chart -->
    <rect x="20" y="90" width="40" height="80" rx="4" fill="#374151"/>
    <rect x="20" y="130" width="40" height="40" rx="4" fill="#0066FF"/>

    <rect x="70" y="90" width="40" height="80" rx="4" fill="#374151"/>
    <rect x="70" y="110" width="40" height="60" rx="4" fill="#0066FF"/>

    <rect x="120" y="90" width="40" height="80" rx="4" fill="#374151"/>
    <rect x="120" y="100" width="40" height="70" rx="4" fill="#00D4AA"/>

    <rect x="170" y="90" width="40" height="80" rx="4" fill="#374151"/>
    <rect x="170" y="95" width="40" height="75" rx="4" fill="#00D4AA"/>

    <rect x="220" y="90" width="40" height="80" rx="4" fill="#374151"/>
    <rect x="220" y="85" width="40" height="85" rx="4" fill="#0066FF"/>

    <rect x="270" y="90" width="40" height="80" rx="4" fill="#374151"/>
    <rect x="270" y="80" width="40" height="90" rx="4" fill="#00D4AA"/>
  </g>
</svg>
